<svg width="215" height="81" viewBox="0 0 215 81" fill="none" xmlns="http://www.w3.org/2000/svg">
<path d="M44.0448 0.469086C43.3259 0.708714 42.2647 1.35912 41.717 1.90684C39.8 3.68691 39.4919 4.98773 39.2181 11.9369C39.0812 15.5655 38.8073 18.6463 38.6019 19.1256C38.3281 19.7075 36.1372 21.1453 31.8582 23.61C28.4007 25.6297 25.2856 27.6152 24.9433 28.026C24.1902 28.9502 24.156 30.6961 24.8406 31.6888C25.1145 32.0996 28.0584 33.8796 31.3789 35.6255C38.1227 39.1856 38.6019 39.6306 38.2254 42.3692C38.1227 43.225 38.02 46.3401 37.9857 49.2499C37.9515 55.172 38.2254 56.3702 40.1766 58.4583C41.7513 60.1015 43.634 60.8888 46.0987 60.8888C52.5002 60.8888 56.4711 54.1793 53.219 48.6679C52.1236 46.7852 51.1993 46.1347 44.7295 42.7115C41.7513 41.1369 39.0812 39.4937 38.8073 39.0829C38.1227 38.0217 38.7046 20.8714 39.4919 19.7075C39.7658 19.2968 42.1278 17.7221 44.7295 16.2159C50.9597 12.6215 51.9867 11.8342 52.774 10.1225C53.5271 8.44517 53.6298 5.87776 52.9794 4.30309C52.329 2.79687 50.0012 0.777176 48.3923 0.332157C46.6807 -0.147091 45.688 -0.112858 44.0448 0.469086Z" fill="#BC2649"/>
<path d="M4.64402 20.4603C2.96664 21.2476 1.25504 22.9934 0.570393 24.6708C-0.319643 26.759 -0.148482 29.8399 0.946946 31.8596C2.07661 33.9135 3.03511 34.5981 9.71037 38.0898C12.7228 39.6645 14.9821 41.068 15.3244 41.5815C15.8037 42.3346 15.8379 43.3958 15.5641 51.4746C15.2902 59.9984 15.2217 60.5803 14.5371 61.2307C14.1605 61.6415 11.3877 63.3873 8.37532 65.1332C4.16477 67.5979 2.69278 68.6249 1.93968 69.7203C-1.27814 74.2732 2.31623 80.7773 8.06723 80.743C9.47075 80.743 11.6958 79.6476 12.8597 78.4837C14.5029 76.7721 14.7083 75.7451 14.9479 69.0356C15.0848 64.8251 15.3244 62.4288 15.6325 61.71C16.0091 60.8884 17.3784 59.9641 21.9655 57.294C29.4281 53.015 29.8046 52.7069 29.8046 50.8242C29.8046 48.9072 29.4281 48.5991 22.9582 45.1416C20.0485 43.6012 17.2757 41.9923 16.8307 41.5815L16.0433 40.8626L16.1802 33.845C16.3856 26.177 16.1802 24.8762 14.5713 22.788C12.5516 20.0837 7.8276 18.9883 4.64402 20.4603Z" fill="#BC2649"/>
<path d="M73.6221 20.8021C71.6366 21.8633 71.0546 23.2326 71.0546 26.9982C71.0546 30.5925 71.5339 31.9276 73.3824 33.2969C74.3067 33.9815 74.8886 34.0157 82.7963 34.1869L91.2174 34.3581L91.6966 35.2139C92.1759 36.1724 92.0389 38.5002 91.4228 39.1163C91.1831 39.356 87.7942 39.5613 81.0504 39.664L71.0546 39.8352L70.952 41.6495C70.8835 42.7107 71.0204 43.7034 71.26 43.9773C71.5681 44.3538 73.4509 44.4565 81.7351 44.4565C93.0659 44.4565 94.3325 44.2854 95.8729 42.5395C97.1053 41.136 97.3792 39.7667 97.1738 36.0354C97.0026 32.8176 96.4891 31.7907 94.4694 30.5925C93.4082 29.9764 92.5524 29.9079 85.261 29.8052C80.4342 29.7367 77.0453 29.5313 76.8056 29.3259C76.2237 28.8467 76.2237 25.8 76.8056 25.3208C77.1137 25.0812 80.4342 24.91 86.6645 24.8758L96.0441 24.7731L96.1468 22.4453L96.2495 20.1517H85.5348C75.7102 20.1517 74.7175 20.2202 73.6221 20.8021Z" fill="#BC2649"/>
<path d="M105.663 20.5631C105.834 20.8028 108.675 24.6025 112.03 28.9843L118.089 36.9261L118.192 40.6232L118.294 44.286H120.69H123.087L123.189 40.6916L123.292 37.0973L129.591 28.8816C133.048 24.3629 135.924 20.5631 135.924 20.392C135.924 20.2551 134.657 20.1524 133.117 20.1524H130.275L125.654 26.4853C123.121 29.9428 120.964 32.784 120.862 32.8182C120.759 32.8182 118.602 29.977 116.069 26.4853L111.448 20.1866H108.435C106.108 20.1524 105.491 20.2551 105.663 20.5631Z" fill="#BC2649"/>
<path d="M145.646 20.8716C145.03 21.5563 144.996 22.2752 144.996 32.9556V44.2864L147.152 44.3891C148.453 44.4576 149.514 44.3207 149.822 44.081C150.199 43.7729 150.302 41.9586 150.302 34.3249C150.302 29.0189 150.439 24.9453 150.61 24.9453C150.781 24.9453 153.999 29.0189 157.798 33.9825C161.598 38.9462 165.021 43.2937 165.398 43.636C166.014 44.1837 166.665 44.2864 169.54 44.2864C174.606 44.2864 174.264 45.2107 174.264 31.4151V20.1528H171.697H169.129V29.7378C169.129 37.1661 169.027 39.3228 168.718 39.3228C168.479 39.3228 165.364 35.4545 161.769 30.7305C158.209 26.0065 154.854 21.6932 154.341 21.1455C153.485 20.187 153.382 20.1528 149.891 20.1528C146.673 20.1528 146.228 20.2212 145.646 20.8716Z" fill="#BC2649"/>
<path d="M189.84 20.5628C188.06 21.179 186.519 22.5825 185.801 24.2257C185.219 25.5265 185.047 26.6561 184.945 30.5928C184.705 38.3978 185.629 41.2048 188.881 42.7795C190.388 43.5326 191.038 43.601 196.515 43.738L202.506 43.8407L204.149 46.2027L205.758 48.5647H208.496C209.968 48.5647 211.269 48.4278 211.372 48.2566C211.475 48.1197 210.858 47.0243 209.968 45.8604C209.113 44.6965 208.462 43.7037 208.531 43.6353C208.599 43.601 209.352 43.3614 210.208 43.1218C212.194 42.5398 214.145 40.6228 214.658 38.6716C214.898 37.6789 215.001 34.9745 214.932 30.9352C214.829 24.8076 214.829 24.7049 213.871 23.3014C213.357 22.514 212.296 21.5213 211.475 21.1105C210.105 20.3574 209.695 20.3232 200.452 20.2547C194.29 20.2205 190.49 20.3232 189.84 20.5628ZM208.188 25.2868C209.489 26.0057 209.866 27.4092 209.866 31.7225C209.866 38.9112 209.763 38.9797 200.178 38.9797C196.207 38.9797 193.092 38.8428 192.442 38.6031C190.662 37.987 190.353 36.8915 190.353 31.6198V26.93L191.346 25.9373L192.339 24.9445H199.938C204.491 24.9445 207.778 25.0815 208.188 25.2868Z" fill="#BC2649"/>
<path d="M70.8833 56.7813V60.5469H74.6488C79.4413 60.5469 79.7837 60.3073 79.7837 56.8156C79.7837 54.6589 79.7152 54.3851 78.8936 53.7347C78.1063 53.1185 77.4901 53.0158 74.4434 53.0158H70.8833V56.7813ZM77.4216 54.7274C77.9351 55.0013 78.072 55.4463 78.072 56.7129C78.072 57.6371 77.9009 58.5272 77.6613 58.7668C77.4216 59.0064 76.292 59.1776 74.9227 59.1776H72.5949V57.021C72.5949 55.8228 72.6976 54.7274 72.8345 54.6247C73.1769 54.2482 76.6685 54.3509 77.4216 54.7274Z" fill="#BC2649"/>
<path d="M85.3296 54.7958C84.7819 55.7885 83.8234 57.5001 83.2414 58.5613L82.146 60.5468H83.173C83.8918 60.5468 84.2684 60.3414 84.4053 59.8622C84.6107 59.246 84.9188 59.1775 87.315 59.1775C89.6771 59.1775 90.0879 59.2802 90.3959 59.8622C90.704 60.4441 92.4499 60.8891 92.4499 60.3756C92.4499 60.136 89.0267 53.9742 88.6159 53.4265C88.4105 53.2211 87.8285 53.0157 87.315 53.0157C86.4935 53.0157 86.1854 53.3238 85.3296 54.7958ZM88.342 56.0966C88.7186 56.8155 89.0267 57.5344 89.0267 57.6371C89.0267 57.7398 88.2735 57.8082 87.315 57.8082H85.6034L86.3565 56.2678C86.7673 55.412 87.2124 54.7273 87.3835 54.7273C87.5204 54.7273 87.9655 55.3435 88.342 56.0966Z" fill="#BC2649"/>
<path d="M93.4766 53.7004C93.4766 54.3166 93.7162 54.3851 95.3593 54.3851H97.2421V57.466C97.2421 60.5126 97.2421 60.5469 98.0979 60.5469C98.9195 60.5469 98.9195 60.4784 99.0222 57.5344L99.1249 54.5563L100.939 54.4536C102.445 54.3509 102.719 54.2482 102.719 53.6662C102.719 53.05 102.445 53.0158 98.0979 53.0158C93.7162 53.0158 93.4766 53.05 93.4766 53.7004Z" fill="#BC2649"/>
<path d="M107.614 53.4266C107.409 53.6662 106.451 55.3778 105.458 57.1921L103.678 60.5469H104.705C105.458 60.5469 105.8 60.3415 105.971 59.8622C106.177 59.2461 106.485 59.1776 108.778 59.1776C110.969 59.1776 111.414 59.2803 111.928 59.8965C112.27 60.3415 112.783 60.5811 113.228 60.4784C113.947 60.3757 113.879 60.1703 111.996 56.7813C110.216 53.5635 109.908 53.187 108.984 53.0843C108.436 53.0158 107.82 53.187 107.614 53.4266ZM109.84 56.0967C110.25 56.8156 110.593 57.5002 110.593 57.6029C110.593 57.7398 109.84 57.8083 108.881 57.8083C107.957 57.8083 107.169 57.7056 107.169 57.6029C107.169 57.2606 108.641 54.7274 108.847 54.7274C108.949 54.7274 109.395 55.3436 109.84 56.0967Z" fill="#BC2649"/>
<path d="M123.806 53.7681C123.155 54.7951 120.177 60.238 120.177 60.4091C120.177 60.8884 121.957 60.4091 122.3 59.8614C122.676 59.2795 123.121 59.1768 125.381 59.1768C127.708 59.1768 128.016 59.2452 128.222 59.8614C128.359 60.3407 128.735 60.5461 129.454 60.5461H130.481L129.043 57.876C126.476 53.1177 126.373 53.015 125.278 53.015C124.627 53.015 124.148 53.2888 123.806 53.7681ZM126.168 55.9932C126.544 56.7121 126.887 57.3967 126.955 57.5336C127.024 57.7048 126.305 57.8075 125.346 57.8075C124.388 57.8075 123.6 57.7048 123.6 57.6021C123.6 57.2255 125.072 54.7266 125.312 54.7266C125.415 54.7266 125.826 55.3085 126.168 55.9932Z" fill="#BC2649"/>
<path d="M133.528 56.7813C133.528 60.3073 133.562 60.5469 134.212 60.5469C134.829 60.5469 134.897 60.3073 134.897 57.6371C134.897 56.0282 135.034 54.7274 135.171 54.7274C135.308 54.7274 136.403 56.0282 137.601 57.6714C139.758 60.5811 139.792 60.5811 141.196 60.4784L142.599 60.3757L142.702 56.6786L142.805 53.0158H141.949C141.093 53.0158 141.093 53.05 140.99 56.1652L140.888 59.3145L138.526 56.1652C136.301 53.1185 136.164 53.0158 134.863 53.0158H133.528V56.7813Z" fill="#BC2649"/>
<path d="M148.247 55.6512C147.426 57.1232 146.467 58.8348 146.125 59.4167L145.44 60.5464H146.501C147.22 60.5464 147.597 60.341 147.734 59.8617C147.939 59.2456 148.247 59.1771 150.643 59.1771C153.005 59.1771 153.416 59.2798 153.724 59.8617C154.067 60.5122 155.778 60.8545 155.778 60.2725C155.778 60.1356 154.888 58.4925 153.793 56.6097C152.047 53.5288 151.739 53.1865 150.78 53.0838C149.753 52.9811 149.617 53.118 148.247 55.6512ZM151.773 56.2674L152.663 57.8078H150.78H148.932L149.685 56.2674C150.096 55.4116 150.541 54.7269 150.678 54.7269C150.815 54.7269 151.328 55.4116 151.773 56.2674Z" fill="#BC2649"/>
<path d="M158.518 56.1994C158.518 60.4442 158.62 60.5469 163.105 60.5469C166.083 60.5469 166.425 60.4784 166.323 59.9307C166.22 59.4514 165.706 59.3145 163.31 59.1776L160.4 59.0064L160.229 56.0967C160.058 53.3924 159.99 53.187 159.305 53.0843C158.552 52.9816 158.518 53.05 158.518 56.1994Z" fill="#BC2649"/>
<path d="M166.391 53.187C166.391 53.2897 167.247 54.4536 168.274 55.7886C169.711 57.6371 170.156 58.4929 170.156 59.383C170.156 60.4099 170.259 60.5469 171.012 60.5469C171.731 60.5469 171.868 60.3757 171.868 59.4857C171.868 58.7326 172.45 57.6714 173.922 55.7201C176.01 53.0158 176.01 53.0158 175.052 53.0158C174.264 53.05 173.819 53.4266 172.587 55.104L171.115 57.1579L169.609 55.0697C168.445 53.4951 167.897 53.0158 167.247 53.0158C166.767 53.0158 166.391 53.0843 166.391 53.187Z" fill="#BC2649"/>
<path d="M178.373 53.6662C178.373 54.2482 178.646 54.3509 180.187 54.4536L181.967 54.5563L182.07 57.5344C182.138 60.2388 182.241 60.5469 182.823 60.5469C183.405 60.5469 183.507 60.2388 183.576 57.5344L183.679 54.5563L185.493 54.4536C186.999 54.3509 187.273 54.2482 187.273 53.6662C187.273 53.05 186.999 53.0158 182.823 53.0158C178.646 53.0158 178.373 53.05 178.373 53.6662Z" fill="#BC2649"/>
<path d="M190.354 56.7813V60.5469H191.209H192.065V56.7813V53.0158H191.209H190.354V56.7813Z" fill="#BC2649"/>
<path d="M196.173 53.7004C195.625 54.2482 195.489 54.8301 195.489 56.884C195.489 60.3757 195.728 60.5469 200.213 60.5469C203.465 60.5469 203.704 60.5126 203.704 59.8622C203.704 59.2461 203.43 59.1776 200.555 59.1091L197.371 59.0064L197.269 56.9183L197.166 54.8301L198.261 54.5905C198.843 54.4878 200.315 54.3851 201.513 54.3851C203.465 54.3851 203.704 54.3166 203.704 53.7004C203.704 53.05 203.465 53.0158 200.281 53.0158C197.303 53.0158 196.755 53.1185 196.173 53.7004Z" fill="#BC2649"/>
<path d="M207.195 53.4266C206.955 53.6662 206.784 54.4536 206.784 55.2409C206.784 56.0282 206.955 56.8156 207.195 57.0552C207.435 57.2948 208.701 57.466 210.447 57.466C213.254 57.466 213.288 57.466 213.288 58.3218C213.288 59.1776 213.288 59.1776 210.036 59.1776C207.024 59.1776 206.784 59.2118 206.784 59.8622C206.784 60.5126 207.024 60.5469 210.481 60.5469C214.623 60.5469 215 60.3757 215 58.4587C215 56.4733 214.384 56.0967 211.2 56.0967C208.53 56.0967 208.462 56.0625 208.564 55.3094C208.667 54.5905 208.838 54.5563 211.679 54.4536C214.384 54.3509 214.658 54.2824 214.658 53.7004C214.658 53.05 214.418 53.0158 211.132 53.0158C208.838 53.0158 207.469 53.1527 207.195 53.4266Z" fill="#BC2649"/>
</svg>
